<?xml version="1.0" encoding="utf-8"?>
<!DOCTYPE svg PUBLIC "-//W3C//DTD SVG 1.1 Tiny//EN" "http://www.w3.org/Graphics/SVG/1.1/DTD/svg11-tiny.dtd">
<svg version="1.1" baseProfile="tiny" id="Layer_1" xmlns="http://www.w3.org/2000/svg" xmlns:xlink="http://www.w3.org/1999/xlink"
	 x="0px" y="0px" width="201.263px" height="47.648px" viewBox="0 0 201.263 47.648" xml:space="preserve">
<g>
	<path d="M57.053,23.895c0-6.276,2.301-11.668,6.903-16.173c4.581-4.506,10.089-6.757,16.519-6.757
		c6.354,0,11.803,2.271,16.346,6.813c4.562,4.546,6.844,10.004,6.844,16.376c0,6.411-2.29,11.85-6.873,16.318
		c-4.602,4.484-10.155,6.729-16.663,6.729c-5.756,0-10.927-1.994-15.509-5.979C59.574,36.812,57.053,31.037,57.053,23.895z
		 M63.84,23.982c0,4.928,1.655,8.98,4.968,12.157c3.292,3.177,7.094,4.765,11.405,4.765c4.68,0,8.627-1.616,11.842-4.852
		c3.215-3.272,4.824-7.259,4.824-11.957c0-4.755-1.59-8.74-4.766-11.955c-3.157-3.235-7.066-4.852-11.726-4.852
		c-4.64,0-8.558,1.616-11.755,4.852C65.438,15.337,63.84,19.284,63.84,23.982z"/>
	<path d="M129.664,26.128L115.107,0.801h7.741l10.192,17.819l10.225-17.819h7.739l-14.612,25.327v21.265h-6.729V26.128z"/>
	<polygon points="179.98,0 157.916,47.393 165.163,47.393 170.133,36.562 170.175,36.562 172.964,30.237 172.934,30.237 
		179.864,15.074 186.478,30.237 191.109,40.893 191.091,40.889 193.899,47.393 201.263,47.393 	"/>
	<path d="M34.412,27.341h-5.973v14.321h-5.141c-2.401,0-4.671-0.485-6.743-1.361c-3.105-1.312-5.759-3.514-7.628-6.281
		c-1.867-2.77-2.954-6.088-2.955-9.686c0.001-2.402,0.482-4.673,1.358-6.745c1.314-3.105,3.515-5.757,6.282-7.626
		c2.769-1.869,6.087-2.957,9.686-2.958h10.959v-5.97H23.299c-3.209-0.002-6.28,0.65-9.069,1.83
		c-4.187,1.771-7.737,4.722-10.247,8.438C1.469,15.019-0.002,19.518,0,24.334c0,3.208,0.652,6.281,1.831,9.07
		c1.771,4.185,4.724,7.735,8.438,10.248c3.716,2.511,8.216,3.982,13.029,3.979l11.084,0.017l0.029-2.1l0,0V27.341z"/>
</g>
</svg>
